<?xml version="1.0" encoding="utf-8"?>
<!-- Generator: Adobe Illustrator 22.1.0, SVG Export Plug-In . SVG Version: 6.00 Build 0)  -->
<svg version="1.1" id="Laag_1" xmlns="http://www.w3.org/2000/svg" xmlns:xlink="http://www.w3.org/1999/xlink" x="0px" y="0px"
	 viewBox="0 0 424.832 122.81905" style="enable-background:new 0 0 424.832 122.81905;" xml:space="preserve">
<style type="text/css">
	.st0{fill:none;}
	.st1{fill:#282523;}
	.st2{fill:#3EB9BF;}
</style>
<g>
	<rect x="-11.409" y="2.68505" class="st0" width="448.32199" height="120.134"/>
	<path class="st1" d="M45.866,33.26205c9.668,0,17.236,3.772,22.705,11.316c5.468,7.544,8.203,17.883,8.203,31.01799
		c0,13.525-2.82,23.999-8.459,31.42c-5.64,7.423-13.319,11.133-23.035,11.133c-9.62,0-17.164-3.49-22.632-10.474H21.11l-3.735,9.009
		H0.31V2.72005h22.339v26.514c0,3.369-0.293,8.765-0.879,16.187h0.879C27.873,37.31505,35.612,33.26205,45.866,33.26205z
		 M38.688,51.13305c-5.519,0-9.547,1.697-12.085,5.09c-2.54,3.395-3.858,8.998-3.955,16.80899v2.417
		c0,8.789,1.306,15.087,3.918,18.896c2.611,3.809,6.75,5.713,12.415,5.713c4.589,0,8.24-2.111,10.95-6.335s4.065-10.364,4.065-18.42
		s-1.368-14.09999-4.102-18.127C47.159,53.14705,43.424,51.13305,38.688,51.13305z"/>
	<path class="st1" d="M149.489,116.68404l-3.00301-10.474h-1.172c-2.39301,3.809-5.786,6.751-10.181,8.825
		c-4.395,2.075-9.4,3.113-15.015,3.113c-9.62,0-16.871-2.575-21.753-7.727c-4.883-5.151-7.324-12.562-7.324-22.229v-53.392h22.339
		v47.827c0,5.908,1.049,10.339,3.149,13.293c2.099,2.954,5.444,4.431,10.034,4.431c6.25,0,10.767-2.087,13.55-6.263
		c2.783-4.174,4.175-11.095,4.175-20.763V34.80005h22.339v81.884C166.62701,116.68405,149.489,116.68405,149.489,116.68404z"/>
	<path class="st1" d="M244.323,116.68404l-3.002-10.474h-1.172c-2.39301,3.809-5.787,6.751-10.18201,8.825
		c-4.395,2.075-9.39999,3.113-15.01399,3.113c-9.621,0-16.87199-2.575-21.754-7.727c-4.883-5.151-7.32401-12.562-7.32401-22.229
		v-53.392h22.339v47.827c0,5.908,1.049,10.339,3.149,13.293c2.099,2.954,5.44501,4.431,10.035,4.431
		c6.25,0,10.76601-2.087,13.549-6.263c2.783-4.174,4.17599-11.095,4.17599-20.763V34.80005h22.338v81.884
		C261.461,116.68405,244.323,116.68405,244.323,116.68404z"/>
	<path class="st2" d="M339.15701,116.68404l-3.00299-10.474h-1.172c-2.39301,3.809-5.78601,6.751-10.181,8.825
		c-4.39499,2.075-9.39999,3.113-15.01501,3.113c-9.62,0-16.871-2.575-21.75299-7.727c-4.883-5.151-7.32401-12.562-7.32401-22.229
		v-53.392H303.048v47.827c0,5.908,1.04999,10.339,3.14899,13.293s5.444,4.431,10.034,4.431c6.25,0,10.767-2.087,13.54999-6.263
		c2.78299-4.174,4.17499-11.095,4.17499-20.763V34.80005h22.33899v81.884
		C356.29495,116.68405,339.15701,116.68405,339.15701,116.68404z M305.905,25.79105v-1.978
		c8.397-9.765,14.13599-17.113,17.21201-22.046h25.04901v1.538c-2.539,2.54-6.87299,6.312-13.00101,11.316
		c-6.12799,5.006-10.92499,8.729-14.392,11.169H305.905V25.79105z"/>
	<path class="st1" d="M410.48001,100.35104c3.90601,0,8.59399-0.854,14.06299-2.563v16.626
		c-5.56601,2.49-12.40298,3.735-20.508,3.735c-8.936,0-15.44199-2.258-19.51901-6.775c-4.078-4.516-6.116-11.29-6.116-20.324
		V51.57205H367.707v-9.448l12.30499-7.471l6.44501-17.285h14.28201v17.432H423.664v16.772h-22.92499v39.47699
		c0,3.175,0.89099,5.519,2.67401,7.031C405.194,99.59405,407.55099,100.35104,410.48001,100.35104z"/>
</g>
</svg>
